<?xml version="1.0" encoding="UTF-8" standalone="no"?>
<svg width="126px" height="32px" viewBox="0 0 126 32" version="1.1" xmlns="http://www.w3.org/2000/svg" xmlns:xlink="http://www.w3.org/1999/xlink" xmlns:sketch="http://www.bohemiancoding.com/sketch/ns">
    <!-- Generator: Sketch 3.2.2 (9983) - http://www.bohemiancoding.com/sketch -->
    <title>Logo</title>
    <desc>Created with Sketch.</desc>
    <defs></defs>
    <g id="Mockup" stroke="none" stroke-width="1" fill="none" fill-rule="evenodd" sketch:type="MSPage">
        <g id="Desktop-HD" sketch:type="MSArtboardGroup" transform="translate(-19.000000, -19.000000)">
            <g id="Home" sketch:type="MSLayerGroup">
                <g id="Nav" transform="translate(20.000000, 18.000000)">
                    <g id="Logo">
                        <g id="Icon" transform="translate(0.000000, 2.000000)" sketch:type="MSShapeGroup">
                            <circle id="Oval-4" stroke="#FFFFFF" cx="15" cy="15" r="15"></circle>
                            <path d="M23.0911859,20.3497564 L17.4710559,11.2591369 L17.4710559,6.68484124 L18.1862056,6.68484124 C18.3798376,6.68484124 18.5475515,6.61209489 18.6889359,6.46688362 C18.8305945,6.32181306 18.9013552,6.14972645 18.9013552,5.95104592 C18.9013552,5.75236538 18.8305945,5.58041948 18.6889359,5.43520821 C18.5475515,5.28999694 18.3798376,5.2173913 18.1862056,5.2173913 L12.4658312,5.2173913 C12.272062,5.2173913 12.1044852,5.28999694 11.9629638,5.43520821 C11.8214423,5.58041948 11.7506816,5.75236538 11.7506816,5.95104592 C11.7506816,6.14972645 11.8214423,6.32181306 11.9629638,6.46688362 C12.1046224,6.61209489 12.2721991,6.68484124 12.4658312,6.68484124 L13.1808437,6.68484124 L13.1808437,11.2589962 L7.56098803,20.3496157 C7.14396596,21.0300825 7.06388017,21.6128975 7.32086779,22.0980607 C7.57785541,22.5833646 8.1011557,22.826087 8.89063154,22.826087 L21.7618166,22.826087 C22.5511553,22.826087 23.0743185,22.5833646 23.3313061,22.0980607 C23.5882937,21.6128975 23.508208,21.0302232 23.0911859,20.3497564 L23.0911859,20.3497564 Z M11.348607,16.9564279 L14.3876159,12.0383811 L14.6110059,11.6829512 L14.6110059,11.2588555 L14.6110059,6.68470053 L16.0410309,6.68470053 L16.0410309,11.2588555 L16.0410309,11.6829512 L16.2644209,12.0383811 L19.3034297,16.9564279 L11.348607,16.9564279 Z M14.9355636,19.9376087 C15.1156564,19.9376087 15.2616505,19.7916146 15.2616505,19.6115217 C15.2616505,19.4314289 15.1156564,19.2854348 14.9355636,19.2854348 C14.7554707,19.2854348 14.6094766,19.4314289 14.6094766,19.6115217 C14.6094766,19.7916146 14.7554707,19.9376087 14.9355636,19.9376087 Z M13.9573027,21.8941304 C14.4975812,21.8941304 14.9355636,21.4561481 14.9355636,20.9158696 C14.9355636,20.375591 14.4975812,19.9376087 13.9573027,19.9376087 C13.4170241,19.9376087 12.9790418,20.375591 12.9790418,20.9158696 C12.9790418,21.4561481 13.4170241,21.8941304 13.9573027,21.8941304 Z M11.348607,21.8941304 C12.2490713,21.8941304 12.9790418,21.1641599 12.9790418,20.2636957 C12.9790418,19.3632314 12.2490713,18.6332609 11.348607,18.6332609 C10.4481428,18.6332609 9.71817225,19.3632314 9.71817225,20.2636957 C9.71817225,21.1641599 10.4481428,21.8941304 11.348607,21.8941304 Z" id="Shape" fill="#FFFFFF"></path>
                        </g>
                        <text id="Chroma" sketch:type="MSTextLayer" font-family="Lato" font-size="25" font-weight="260" fill="#FFFFFF">
                            <tspan x="40" y="25">Chroma</tspan>
                        </text>
                    </g>
                </g>
            </g>
        </g>
    </g>
</svg>